<svg width="165" height="44" viewBox="0 0 165 44" fill="none" xmlns="http://www.w3.org/2000/svg">
<path d="M54.0635 16.9141H58.5708C59.495 16.9141 60.2891 17.0524 60.9531 17.3291C61.6227 17.6058 62.1374 18.0153 62.4971 18.5576C62.8568 19.0999 63.0366 19.7668 63.0366 20.5581C63.0366 21.2056 62.9259 21.7617 62.7046 22.2266C62.4888 22.6859 62.1816 23.0705 61.7832 23.3804C61.3903 23.6847 60.9282 23.9282 60.397 24.1108L59.6084 24.5259H55.6904L55.6738 22.5835H58.5874C59.0246 22.5835 59.387 22.506 59.6748 22.3511C59.9626 22.1961 60.1784 21.9803 60.3223 21.7036C60.4717 21.4269 60.5464 21.106 60.5464 20.7407C60.5464 20.3534 60.4744 20.0186 60.3306 19.7363C60.1867 19.4541 59.9681 19.2383 59.6748 19.0889C59.3815 18.9395 59.0135 18.8647 58.5708 18.8647H56.5537V29H54.0635V16.9141ZM60.8203 29L58.0645 23.6128L60.6958 23.5962L63.4849 28.8838V29H60.8203ZM71.2461 25.8374C71.2461 25.6216 71.2129 25.4279 71.1465 25.2563C71.0856 25.0793 70.9694 24.9188 70.7979 24.7749C70.6263 24.6255 70.3856 24.4788 70.0757 24.335C69.7658 24.1911 69.3646 24.0417 68.8721 23.8867C68.3242 23.7096 67.804 23.5104 67.3115 23.2891C66.8245 23.0677 66.3929 22.8104 66.0166 22.5171C65.6458 22.2183 65.3525 21.8724 65.1367 21.4795C64.9264 21.0866 64.8213 20.63 64.8213 20.1099C64.8213 19.6063 64.932 19.1497 65.1533 18.7402C65.3747 18.3252 65.6846 17.971 66.083 17.6777C66.4814 17.3789 66.9518 17.1493 67.4941 16.9888C68.042 16.8283 68.6424 16.748 69.2954 16.748C70.1864 16.748 70.9639 16.9085 71.6279 17.2295C72.292 17.5505 72.8066 17.9904 73.1719 18.5493C73.5426 19.1082 73.728 19.7474 73.728 20.4668H71.2544C71.2544 20.1126 71.1797 19.8027 71.0303 19.5371C70.8864 19.266 70.665 19.0529 70.3662 18.8979C70.0729 18.743 69.7021 18.6655 69.2539 18.6655C68.8223 18.6655 68.4626 18.7319 68.1748 18.8647C67.887 18.992 67.6712 19.1663 67.5273 19.3877C67.3835 19.6035 67.3115 19.847 67.3115 20.1182C67.3115 20.3229 67.3613 20.5083 67.4609 20.6743C67.5661 20.8403 67.721 20.9953 67.9258 21.1392C68.1305 21.283 68.3823 21.4186 68.6812 21.5459C68.98 21.6732 69.3258 21.7977 69.7188 21.9194C70.3773 22.1187 70.9556 22.3428 71.4536 22.5918C71.9572 22.8408 72.3778 23.1203 72.7153 23.4302C73.0529 23.7401 73.3075 24.0915 73.479 24.4844C73.6506 24.8773 73.7363 25.3228 73.7363 25.8208C73.7363 26.3465 73.634 26.8169 73.4292 27.2319C73.2244 27.647 72.9284 27.9984 72.541 28.2861C72.1536 28.5739 71.6916 28.7925 71.1548 28.9419C70.618 29.0913 70.0176 29.166 69.3535 29.166C68.7559 29.166 68.1665 29.0885 67.5854 28.9336C67.0044 28.7731 66.4759 28.5324 66 28.2114C65.5296 27.8905 65.1533 27.481 64.8711 26.9829C64.5889 26.4849 64.4478 25.8955 64.4478 25.2148H66.9463C66.9463 25.5911 67.0044 25.9093 67.1206 26.1694C67.2368 26.4295 67.4001 26.6398 67.6104 26.8003C67.8262 26.9608 68.0807 27.077 68.374 27.1489C68.6729 27.2209 68.9993 27.2568 69.3535 27.2568C69.7852 27.2568 70.1393 27.196 70.416 27.0742C70.6982 26.9525 70.9058 26.7837 71.0386 26.5679C71.1769 26.3521 71.2461 26.1086 71.2461 25.8374ZM79.9951 22.874V24.75H75.3052V22.874H79.9951ZM87.0508 18.981L83.7637 29H81.1157L85.6064 16.9141H87.2915L87.0508 18.981ZM89.7817 29L86.4863 18.981L86.2207 16.9141H87.9224L92.438 29H89.7817ZM89.6323 24.501V26.4517H83.249V24.501H89.6323ZM95.5342 21.7451V32.4531H93.1436V20.0186H95.3599L95.5342 21.7451ZM101.22 24.4097V24.584C101.22 25.237 101.143 25.8429 100.988 26.4019C100.838 26.9608 100.617 27.4478 100.324 27.8628C100.03 28.2723 99.6652 28.5933 99.228 28.8257C98.7964 29.0526 98.2983 29.166 97.7339 29.166C97.186 29.166 96.7101 29.0553 96.3062 28.834C95.9022 28.6126 95.5618 28.3027 95.2852 27.9043C95.014 27.5003 94.7954 27.0327 94.6294 26.5015C94.4634 25.9702 94.3361 25.4002 94.2476 24.7915V24.335C94.3361 23.682 94.4634 23.0843 94.6294 22.542C94.7954 21.9941 95.014 21.521 95.2852 21.1226C95.5618 20.7186 95.8994 20.4059 96.2979 20.1846C96.7018 19.9632 97.175 19.8525 97.7173 19.8525C98.2873 19.8525 98.7881 19.9604 99.2197 20.1763C99.6569 20.3921 100.022 20.702 100.315 21.106C100.614 21.5099 100.838 21.9914 100.988 22.5503C101.143 23.1092 101.22 23.729 101.22 24.4097ZM98.8213 24.584V24.4097C98.8213 24.0278 98.7881 23.6764 98.7217 23.3555C98.6608 23.029 98.5612 22.744 98.4229 22.5005C98.29 22.257 98.113 22.0688 97.8916 21.936C97.6758 21.7977 97.4129 21.7285 97.103 21.7285C96.7765 21.7285 96.4971 21.7811 96.2646 21.8862C96.0378 21.9914 95.8524 22.1436 95.7085 22.3428C95.5646 22.542 95.4567 22.7799 95.3848 23.0566C95.3128 23.3333 95.2686 23.646 95.252 23.9946V25.1484C95.2796 25.5579 95.3571 25.9259 95.4844 26.2524C95.6117 26.5734 95.8081 26.828 96.0737 27.0161C96.3394 27.2043 96.688 27.2983 97.1196 27.2983C97.4351 27.2983 97.7007 27.2292 97.9165 27.0908C98.1323 26.9469 98.3066 26.7505 98.4395 26.5015C98.5778 26.2524 98.6746 25.9647 98.73 25.6382C98.7909 25.3117 98.8213 24.9603 98.8213 24.584ZM105.097 21.7451V32.4531H102.706V20.0186H104.922L105.097 21.7451ZM110.783 24.4097V24.584C110.783 25.237 110.705 25.8429 110.55 26.4019C110.401 26.9608 110.18 27.4478 109.886 27.8628C109.593 28.2723 109.228 28.5933 108.791 28.8257C108.359 29.0526 107.861 29.166 107.296 29.166C106.749 29.166 106.273 29.0553 105.869 28.834C105.465 28.6126 105.124 28.3027 104.848 27.9043C104.576 27.5003 104.358 27.0327 104.192 26.5015C104.026 25.9702 103.899 25.4002 103.81 24.7915V24.335C103.899 23.682 104.026 23.0843 104.192 22.542C104.358 21.9941 104.576 21.521 104.848 21.1226C105.124 20.7186 105.462 20.4059 105.86 20.1846C106.264 19.9632 106.737 19.8525 107.28 19.8525C107.85 19.8525 108.351 19.9604 108.782 20.1763C109.219 20.3921 109.585 20.702 109.878 21.106C110.177 21.5099 110.401 21.9914 110.55 22.5503C110.705 23.1092 110.783 23.729 110.783 24.4097ZM108.384 24.584V24.4097C108.384 24.0278 108.351 23.6764 108.284 23.3555C108.223 23.029 108.124 22.744 107.985 22.5005C107.853 22.257 107.675 22.0688 107.454 21.936C107.238 21.7977 106.975 21.7285 106.666 21.7285C106.339 21.7285 106.06 21.7811 105.827 21.8862C105.6 21.9914 105.415 22.1436 105.271 22.3428C105.127 22.542 105.019 22.7799 104.947 23.0566C104.875 23.3333 104.831 23.646 104.814 23.9946V25.1484C104.842 25.5579 104.92 25.9259 105.047 26.2524C105.174 26.5734 105.371 26.828 105.636 27.0161C105.902 27.2043 106.25 27.2983 106.682 27.2983C106.998 27.2983 107.263 27.2292 107.479 27.0908C107.695 26.9469 107.869 26.7505 108.002 26.5015C108.14 26.2524 108.237 25.9647 108.292 25.6382C108.353 25.3117 108.384 24.9603 108.384 24.584Z" fill="white"/>
<path d="M21.1635 41.3015C10.7142 41.3015 2.21251 32.6482 2.21251 22.0125C2.21251 11.3718 10.7142 2.71851 21.1635 2.71851C31.6178 2.71851 40.1195 11.3718 40.1195 22.0125C40.1195 32.6482 31.6128 41.3015 21.1635 41.3015ZM21.1635 0.461548C9.47306 0.461548 0 10.1035 0 22.0025C0 33.8965 9.47306 43.5385 21.1635 43.5385C32.8491 43.5385 42.3271 33.8965 42.3271 22.0025C42.3222 10.1035 32.8491 0.461548 21.1635 0.461548ZM25.8191 29.5773C27.546 31.5047 27.3105 35.0899 26.7316 36.7526C26.7022 36.8375 26.6531 37.0073 26.452 37.0722C25.461 37.4467 24.3081 37.7013 23.6802 37.7962C26.3833 35.3146 26.7856 31.7244 25.8191 29.5773ZM35.7288 27.3503C33.374 25.2781 30.5336 23.885 27.8795 23.3757C30.6366 24.604 33.2808 27.4951 34.6201 30.2714C34.8997 29.812 35.4492 28.8183 35.8514 27.7148C35.9005 27.5351 35.7975 27.4152 35.7288 27.3503ZM36.8767 22.0325C36.8767 21.8577 36.7934 21.8078 36.7541 21.7928C35.1205 21.1137 34.0755 20.879 34.0755 20.879C34.5318 20.6743 34.8359 20.16 34.8997 19.8804C33.8989 20.4296 32.6382 20.5994 31.8876 20.5395C33.4035 21.1686 35.4197 22.2472 36.8179 23.4356C36.862 22.9063 36.8767 22.367 36.8767 22.0325ZM28.3113 27.7747C28.8901 27.9345 29.7192 28.0494 30.2589 27.7947C27.6637 27.1156 26.2165 23.4106 20.3345 22.8813C20.045 22.8564 19.4612 22.9313 19.8292 22.367C20.1922 21.7928 22.493 20.17 22.493 20.17C22.0515 20.17 20.0745 20.3447 19.4809 20.4296C18.8922 20.5145 18.745 20.3148 18.7205 19.9153C18.7205 19.9153 17.5284 21.0538 18.0974 21.633C18.1857 21.7179 18.4408 21.7479 18.745 21.603C19.0197 21.4782 19.525 21.3084 19.7948 21.2535C19.8341 21.2435 19.8782 21.2685 19.8439 21.3234C19.7114 21.5431 19.3729 22.1074 19.2797 22.377C19.1718 22.7265 19.1424 22.9013 19.6771 23.0661C20.2069 23.2408 22.91 24.0997 24.578 25.2481C26.2263 26.3966 30.1509 29.5074 29.94 35.2896C30.8868 34.6455 31.6717 33.9314 32.1574 33.4471C32.2751 33.3322 32.2506 33.1475 32.2261 33.0776C31.657 31.3599 30.0724 28.8882 28.3113 27.7747ZM34.4386 15.6611C34.1884 16.5349 33.6291 16.9793 33.2955 17.0742C32.751 17.2339 32.28 17.0492 32.28 17.0492C32.1476 17.194 32.0004 17.3538 31.8778 17.4686C31.6619 17.6733 31.5736 17.5235 31.5883 17.3987C31.603 17.2689 31.6276 17.1391 31.5393 16.9843C31.397 16.7396 31.2204 16.9793 30.9849 17.0592C30.7592 17.1341 30.6906 16.8295 30.6906 16.8295C29.4151 16.5698 28.8166 17.2289 28.8166 17.2289C29.7437 17.3588 30.1804 17.958 30.2539 18.2626C30.3079 18.4922 30.877 18.4922 31.1272 18.3125C31.191 18.2675 31.3627 18.1727 31.3479 18.4074C31.343 18.4972 31.3185 18.6321 31.2694 18.8118C31.7061 19.0515 31.8336 19.1014 31.6962 19.3461C31.2008 20.2299 30.7641 20.0901 30.6464 20.0501C28.8166 19.3711 27.0897 19.0814 26.0104 19.0365C26.1527 18.8318 26.604 18.4423 26.604 18.4423C19.1767 18.4423 17.9257 19.3561 17.5333 19.8504C17.2733 20.185 17.4989 20.7092 17.4989 20.7092C16.611 20.884 14.4083 21.2835 13.3928 22.1923C12.4803 23.0111 12.4116 24.8337 12.3773 25.5028C12.7894 25.0883 13.2947 24.7488 13.7656 24.5191C14.7664 24.0348 15.934 24.1246 17.445 24.1796C18.0778 24.1995 18.4065 24.4542 18.5929 24.8337C18.7842 25.2132 18.328 25.1682 18.068 24.9985C16.7974 24.1596 16.3313 25.7075 14.9577 25.2981C15.3796 25.8323 15.9781 25.8274 16.3068 25.7025C17.6755 25.1732 18.0091 25.7325 18.0827 25.8673C17.1948 25.8174 15.8064 26.3666 15.1245 26.5164C14.2807 26.7062 13.4811 26.7311 13.4811 26.7311C14.0354 27.4152 14.84 27.4152 15.4238 27.4152C16.0174 27.4152 17.9208 27.2604 19.059 27.3753C21.9779 27.6749 22.1545 30.4112 20.4522 32.0989C21.8356 31.7144 22.39 30.3612 22.39 30.3612C23.3908 34.99 19.2208 37.4367 15.8211 36.7177C14.1679 36.3681 12.858 35.6391 11.921 34.955C11.1852 34.4158 10.6014 33.8615 10.4101 33.6818C12.6569 34.271 16.0517 34.3009 18.3771 33.2174C13.903 33.2773 10.8663 32.1089 8.77153 30.9604C7.91793 30.4911 7.7217 30.3213 7.41754 29.777C6.75526 28.5786 6.32355 27.4901 5.90656 25.8923C7.63339 27.4302 11.3274 29.4874 13.1328 29.6572C8.49681 26.9159 6.21562 22.9013 5.98015 22.4569C5.78391 22.0874 5.44051 21.6979 5.48466 20.8191C5.54353 19.6507 5.89675 17.913 6.31374 16.7446C6.86319 18.3524 8.24662 21.2635 9.88024 22.6416C8.24171 19.0964 7.99152 14.5276 8.02095 13.7436C8.03567 13.3891 8.09944 13.0945 8.4036 12.6601C8.81078 12.0709 9.7576 10.9125 10.724 10.0536C10.518 11.3169 10.1991 13.8735 10.6603 16.3351C11.2931 12.4803 12.7452 9.51934 13.746 8.20611C13.952 7.93647 14.0894 7.73674 14.4671 7.547C14.9136 7.31231 16.1695 6.75806 17.6608 6.41852C16.3804 7.31231 15.3257 9.08492 14.9872 10.0386C19.3435 5.7644 23.5281 5.79935 25.981 4.67587C26.4667 4.45616 26.7365 4.88059 26.7071 5.19517C26.6629 5.59962 26.4961 6.26872 26.4961 6.26872C27.9973 6.63822 28.635 7.38721 28.635 7.38721C28.586 7.18748 28.6105 6.84294 28.6105 6.84294C30.6611 8.70044 31.343 10.1235 31.2793 11.287C31.2253 12.3355 32.0151 12.9098 32.437 13.1444C32.854 13.3741 34.5171 14.4377 34.831 14.7073C35.0763 14.9221 34.7133 15.4064 34.4386 15.6611ZM25.1225 6.02405C24.5338 6.41852 23.8813 6.98775 23.4594 7.93148C23.3859 8.08627 23.5085 8.26103 23.7391 8.12622C24.2444 7.83661 24.8625 7.68681 24.8625 7.68681C24.7153 7.20246 25.2942 6.39854 25.5689 6.064C25.6572 5.96413 25.5787 5.74443 25.1225 6.02405ZM30.2098 10.533C30.0626 11.6614 29.8222 11.6115 29.5622 11.5216C29.0864 11.3569 28.2377 11.252 27.909 11.3868C28.8116 12.1907 29.4151 13.4041 29.4151 13.4041C29.4985 13.0046 29.2875 12.3905 29.1943 12.1807C29.1207 12.021 29.2041 12.0459 29.3905 12.0909C29.5083 12.1208 29.7732 12.1957 29.9105 12.2457C30.2441 12.3655 30.2834 12.2057 30.3226 11.9461C30.3717 11.6515 30.4011 11.2021 30.2098 10.533ZM19.4907 15.676C19.7016 15.5762 20.2609 15.3115 20.6337 15.2017C20.6337 15.2017 20.3099 16.3351 20.3688 18.1827C20.9967 18.0828 21.6394 18.0179 22.3949 17.9929C21.2764 17.5735 21.3401 15.4114 22.0956 14.3079C22.3164 13.9883 22.0613 13.9534 21.7768 14.0482C21.399 14.1681 21.1635 14.253 20.7956 14.3978C20.7956 14.3978 20.9673 11.5266 23.43 9.26468C21.1047 10.2683 19.3484 13.6488 19.4907 15.676Z" fill="white"/>
</svg>
