<svg>
    <symbol width="51" height="62" viewBox="0 0 51 62" fill="none" xmlns="http://www.w3.org/2000/svg" id="ico-passport-photo">
        <path fill-rule="evenodd" clip-rule="evenodd" d="M45 43H25V41H45V43Z" fill="#9C9AB1"/>
        <path fill-rule="evenodd" clip-rule="evenodd" d="M45 48H25V46H45V48Z" fill="#9C9AB1"/>
        <path fill-rule="evenodd" clip-rule="evenodd" d="M37 53H25V51H37V53Z" fill="#9C9AB1"/>
        <path fill-rule="evenodd" clip-rule="evenodd" d="M45 16H6V14H45V16Z" fill="#9C9AB1"/>
        <path fill-rule="evenodd" clip-rule="evenodd" d="M45 24H35V22H45V24Z" fill="#9C9AB1"/>
        <path fill-rule="evenodd" clip-rule="evenodd" d="M45 11H6V9H45V11Z" fill="#9C9AB1"/>
        <rect x="1" y="1" width="49" height="30" rx="4" stroke="#9C9AB1" stroke-width="2"/>
        <rect x="1" y="31" width="49" height="30" rx="4" stroke="#9C9AB1" stroke-width="2"/>
        <path d="M9.61163 44.4734C9.61163 44.4734 9.02761 44.7677 9.02761 45.6504C9.02761 46.5332 9.90364 46.8274 9.90364 46.8274C9.90364 49.0011 13.1157 50.3584 13.9918 50.3584C14.8678 50.3584 18.0799 49.0011 18.0799 46.8274C18.0799 46.8274 18.9559 46.5332 18.9559 45.6504C18.9559 44.7677 18.3719 44.4734 18.3719 44.4734M9.61163 44.4734C9.61163 44.4734 9.31962 44.4734 9.31962 42.7079C9.31962 40.9425 10.4877 38 13.9918 38C17.4959 38 18.6639 40.9425 18.6639 42.7079C18.6639 43.8849 18.3719 44.4734 18.3719 44.4734M9.61163 44.4734C9.61163 44.4734 10.1957 45.0619 11.0717 45.0619C11.0717 45.0619 10.7797 42.7079 11.6557 42.1195C12.2397 43.2964 13.9918 44.4734 15.1598 44.4734C15.1598 44.4734 14.5758 43.2964 15.1598 42.7079C15.7438 44.1792 17.4959 44.4734 18.3719 44.4734M15.1598 50.0491L15.7438 52.1238C15.7438 52.1238 19.0917 52.7704 20.0458 53.5412C21 54.312 21 55 21 55M12.8402 50.0492L12.2562 52.1238C12.2562 52.1238 8.90834 52.7704 7.95417 53.5412C7 54.312 7 55 7 55" stroke="#9C9AB1" stroke-width="1.5" stroke-miterlimit="10"/>
    </symbol>

    <symbol width="51" height="62" viewBox="0 0 51 62" fill="none" xmlns="http://www.w3.org/2000/svg" id="ico-passport-registration">
        <rect x="1" y="1" width="49" height="30" rx="4" stroke="#9C9AB1" stroke-width="2"/>
        <rect x="1" y="31" width="49" height="30" rx="4" stroke="#9C9AB1" stroke-width="2"/>
        <rect x="30" y="37" width="14" height="18" rx="2" stroke="#9C9AB1" stroke-width="2"/>
        <path fill-rule="evenodd" clip-rule="evenodd" d="M7 56L7 36L9 36L9 56L7 56Z" fill="#9C9AB1"/>
    </symbol>

    <symbol width="51" height="62" viewBox="0 0 51 62" fill="none" xmlns="http://www.w3.org/2000/svg" id="ico-user-photo">
        <rect x="1" y="1" width="49" height="60" rx="4" stroke="#9C9AB1" stroke-width="2"/>
        <path d="M14.9694 26.8508C14.9694 26.8508 13.6345 27.5258 13.6345 29.5509C13.6345 31.5761 15.6369 32.2511 15.6369 32.2511C15.6369 37.2379 22.9788 40.3515 24.9812 40.3515C26.9835 40.3515 34.3255 37.2379 34.3255 32.2511C34.3255 32.2511 36.3278 31.5761 36.3278 29.5509C36.3278 27.5258 34.9929 26.8508 34.9929 26.8508M14.9694 26.8508C14.9694 26.8508 14.302 26.8508 14.302 22.8006C14.302 18.7504 16.9718 12 24.9812 12C32.9906 12 35.6604 18.7504 35.6604 22.8006C35.6604 25.5007 34.9929 26.8508 34.9929 26.8508M14.9694 26.8508C14.9694 26.8508 16.3043 28.2009 18.3067 28.2009C18.3067 28.2009 17.6392 22.8006 19.6416 21.4505C20.9765 24.1507 24.9812 26.8508 27.651 26.8508C27.651 26.8508 26.3161 24.1507 27.651 22.8006C28.9859 26.1758 32.9906 26.8508 34.9929 26.8508M27.651 39.6422L28.9859 44.4017C28.9859 44.4017 36.6381 45.8849 38.819 47.6533C41 49.4217 41 51 41 51M22.349 39.6422L21.0141 44.4018C21.0141 44.4018 13.3619 45.8849 11.181 47.6533C9 49.4217 9 51 9 51" stroke="#9C9AB1" stroke-width="2" stroke-miterlimit="10"/>
    </symbol>

    <symbol width="90" height="90" viewBox="0 0 90 90" fill="none" xmlns="http://www.w3.org/2000/svg" id="ico-chack-mark">
        <circle cx="45" cy="45" r="42.9" stroke="#82B23B" stroke-width="3.8"/>
        <path d="M20.8744 44.6044L36.167 59.897L65.8294 30.2346" stroke="#82B23B" stroke-width="5"/>
    </symbol>
    
</svg>